<?xml version="1.0" standalone="no"?>
<!DOCTYPE svg PUBLIC "-//W3C//DTD SVG 20010904//EN"
 "http://www.w3.org/TR/2001/REC-SVG-20010904/DTD/svg10.dtd">
<svg version="1.0" xmlns="http://www.w3.org/2000/svg"
 width="1024.000000pt" height="1024.000000pt" viewBox="0 0 1024.000000 1024.000000"
 preserveAspectRatio="xMidYMid meet">
<metadata>
Created by potrace 1.11, written by Peter Selinger 2001-2013
</metadata>
<g transform="translate(0.000000,1024.000000) scale(0.100000,-0.100000)"
fill="#000000" stroke="none">
<path d="M4027 9474 c-1 -1 -18 -4 -37 -7 -92 -13 -196 -71 -261 -146 -164
-186 -158 -451 16 -626 87 -89 213 -141 338 -140 l47 1 0 -477 0 -478 -22 -6
c-127 -38 -456 -168 -523 -207 -11 -7 -42 -23 -70 -36 -73 -35 -227 -126 -330
-195 -85 -57 -244 -173 -255 -187 -3 -3 -14 -13 -26 -21 -115 -78 -449 -426
-566 -590 -10 -13 -36 -49 -59 -79 -110 -149 -288 -464 -358 -635 -18 -44 -37
-89 -43 -99 -6 -11 -34 -92 -63 -180 -74 -224 -115 -398 -145 -611 -6 -44 -13
-89 -15 -101 -25 -153 -25 -565 0 -771 2 -15 6 -55 10 -88 25 -224 117 -573
214 -817 261 -658 728 -1230 1321 -1620 63 -41 129 -83 145 -92 17 -9 46 -26
65 -37 41 -25 224 -118 290 -147 175 -78 501 -188 619 -208 14 -3 34 -7 43
-10 10 -3 30 -7 45 -10 16 -2 39 -7 53 -9 219 -44 395 -60 660 -60 309 0 427
13 810 90 91 18 347 100 485 155 330 131 625 306 920 544 107 87 346 320 436
425 427 503 714 1135 799 1761 6 41 13 89 15 105 29 195 24 648 -8 860 -4 22
-9 60 -12 85 -11 87 -75 356 -115 482 -76 245 -172 466 -295 683 -61 108 -199
322 -215 335 -3 3 -17 21 -30 40 -13 19 -27 37 -30 40 -3 3 -23 28 -44 55
-141 178 -365 401 -546 541 -41 32 -79 62 -85 66 -41 33 -112 82 -175 122 -41
27 -87 57 -102 67 -15 10 -30 19 -33 19 -3 0 -22 11 -43 23 -42 27 -213 114
-287 147 -27 12 -68 31 -89 41 -22 11 -43 19 -47 19 -3 0 -24 8 -45 17 -22 9
-43 18 -49 19 -5 2 -57 19 -115 38 l-105 35 -3 480 -2 479 31 -2 c122 -9 262
45 354 138 119 120 161 276 119 440 -29 112 -126 236 -223 286 -112 56 -37 53
-1249 54 -612 1 -1114 1 -1115 0z m2221 -285 c149 -64 153 -269 7 -347 -25
-13 -72 -16 -262 -17 l-232 -2 -35 -27 c-76 -58 -67 -169 17 -212 17 -10 47
-17 64 -16 32 1 33 0 34 -41 0 -23 0 -286 0 -584 0 -499 2 -542 17 -547 230
-66 403 -123 499 -167 24 -10 46 -19 49 -19 10 0 282 -138 325 -165 21 -14 41
-25 43 -25 5 0 74 -44 92 -59 5 -4 21 -14 35 -21 13 -7 26 -16 29 -19 3 -3 24
-19 47 -34 81 -52 288 -226 393 -329 130 -128 213 -221 308 -346 40 -53 79
-105 87 -115 8 -9 15 -20 15 -23 0 -3 11 -20 24 -37 37 -50 137 -221 193 -332
94 -185 184 -422 239 -630 13 -48 48 -216 59 -280 30 -174 40 -300 40 -525 0
-250 -6 -337 -41 -540 -8 -47 -16 -97 -19 -112 -25 -158 -174 -612 -217 -665
-6 -7 -8 -13 -5 -13 3 0 -22 -55 -57 -122 -80 -156 -86 -167 -113 -205 -13
-17 -23 -34 -23 -38 0 -4 -10 -21 -22 -38 -13 -17 -27 -39 -33 -48 -103 -172
-393 -501 -579 -656 -37 -32 -73 -62 -80 -68 -44 -39 -124 -97 -242 -176 -437
-293 -924 -467 -1474 -526 -96 -10 -501 -10 -605 0 -380 37 -717 128 -1058
284 -114 52 -350 182 -355 195 -2 4 -8 8 -13 8 -21 0 -218 144 -374 272 -87
72 -327 319 -406 418 -118 148 -233 317 -309 455 -68 124 -77 143 -128 255
-47 106 -128 316 -137 357 -2 10 -13 50 -25 88 -11 39 -23 84 -26 100 -3 17
-11 55 -19 85 -20 79 -54 304 -63 417 -13 182 -6 535 13 655 2 13 6 46 10 73
3 28 17 104 30 170 195 974 832 1802 1725 2246 185 91 332 147 622 235 l87 27
-1 581 0 581 313 2 c208 2 323 7 342 14 63 27 93 124 54 182 -40 61 -33 60
-587 62 -559 1 -538 -1 -595 67 -35 41 -47 74 -46 123 0 52 22 103 58 137 63
60 -1 57 1183 56 1029 -1 1087 -2 1128 -19z"/>
<path d="M4738 8288 c-69 -39 -70 -45 -70 -373 0 -286 1 -295 22 -325 52 -73
149 -80 207 -16 19 21 34 47 34 63 7 140 3 563 -5 583 -32 75 -119 107 -188
68z"/>
<path d="M5526 6998 c-21 -21 -35 -48 -40 -73 -4 -22 -40 -200 -81 -395 -60
-288 -128 -614 -159 -770 -3 -14 -19 -90 -36 -170 -16 -80 -32 -156 -35 -170
-25 -131 -65 -304 -71 -310 -30 -27 -520 -124 -739 -145 -33 -3 -78 -8 -100
-10 -233 -23 -739 -23 -960 0 -16 1 -66 6 -110 10 -44 4 -87 8 -95 10 -8 2
-44 6 -80 10 -36 4 -130 18 -210 31 -80 14 -159 27 -177 30 -18 3 -88 18 -155
34 -68 15 -126 25 -130 22 -11 -11 -59 -209 -74 -302 -3 -19 -7 -42 -9 -50 -3
-8 -7 -35 -10 -60 -3 -25 -8 -67 -11 -95 -3 -27 -8 -68 -10 -90 -5 -51 -5
-399 0 -445 2 -19 6 -64 10 -100 4 -36 11 -90 16 -120 5 -30 12 -71 15 -90 3
-19 13 -64 21 -100 9 -36 17 -73 19 -83 15 -69 70 -237 116 -355 166 -418 448
-817 778 -1102 35 -30 69 -59 75 -65 6 -5 38 -30 71 -55 33 -25 62 -47 65 -50
11 -11 208 -138 260 -167 379 -212 757 -331 1170 -370 160 -15 503 -9 630 11
14 2 46 7 71 10 169 24 425 90 564 146 11 4 56 22 100 39 317 123 690 374 948
636 368 373 616 809 747 1310 32 124 34 133 55 265 21 141 23 157 30 256 12
160 6 439 -9 521 -3 11 -7 44 -10 74 -7 65 -11 86 -37 209 -38 177 -51 220
-70 230 -39 21 -499 110 -644 125 -22 2 -58 6 -80 9 -22 3 -69 7 -105 11 -36
3 -81 8 -100 10 -198 24 -793 24 -985 1 -16 -2 -59 -7 -95 -11 -36 -3 -76 -8
-90 -10 -14 -2 -50 -7 -80 -10 -30 -3 -62 -8 -70 -10 -8 -2 -30 -7 -47 -10
-75 -12 -100 -17 -138 -25 -22 -5 -41 -7 -43 -5 -3 3 21 130 88 445 16 80 48
235 71 345 38 183 56 234 78 221 3 -2 29 -7 56 -10 259 -35 626 -169 882 -322
17 -10 53 -32 80 -48 26 -16 89 -59 138 -94 181 -131 170 -125 223 -125 62 -1
110 26 139 79 40 69 25 129 -55 224 -12 14 -25 30 -30 35 -61 75 -183 206
-292 315 -328 326 -689 580 -1053 741 -111 49 -148 50 -191 7z m-146 -1835 c0
-10 -5 -36 -10 -58 -5 -22 -11 -53 -14 -70 -7 -35 -4 -21 -50 -240 -49 -237
-201 -970 -237 -1145 -17 -80 -33 -158 -35 -175 -15 -85 -57 -232 -80 -278
-97 -195 -313 -330 -599 -376 -72 -12 -290 -7 -363 8 -75 15 -168 40 -200 53
-15 6 -32 12 -38 13 -6 2 -37 16 -70 32 -321 160 -510 420 -499 688 12 286
233 510 576 586 148 33 368 30 514 -8 215 -54 401 -157 532 -291 45 -47 46
-46 59 25 3 16 27 134 54 263 27 129 51 246 54 260 2 14 12 59 21 100 9 41 18
84 21 95 2 11 7 34 9 50 11 58 66 325 78 371 l12 46 125 33 c151 40 140 39
140 18z m677 -984 c56 -18 113 -84 130 -149 8 -31 2 -102 -11 -133 -34 -79
-111 -129 -201 -129 -152 -2 -255 160 -190 300 49 106 156 150 272 111z m104
-924 c67 -24 119 -65 154 -120 41 -65 52 -107 49 -179 -8 -163 -147 -286 -313
-274 -112 8 -199 66 -248 165 -35 72 -37 172 -5 246 60 134 228 209 363 162z
m-748 -799 c37 -15 83 -59 102 -97 48 -91 4 -213 -93 -260 -163 -80 -338 92
-263 257 20 43 75 94 113 106 40 11 108 8 141 -6z"/>
<path d="M4090 6974 c-274 -100 -640 -317 -859 -507 -85 -75 -284 -279 -352
-362 -128 -155 -143 -194 -106 -266 37 -71 119 -98 191 -64 19 9 66 59 114
118 129 162 338 367 467 457 236 165 414 264 620 345 134 53 150 63 175 119
41 90 -25 197 -120 195 -19 0 -78 -16 -130 -35z"/>
</g>
</svg>
